<svg xmlns="http://www.w3.org/2000/svg" viewBox="0 0 160 160" width="160" height="160"><style>.lgh{stroke-dasharray:430;stroke-dashoffset:430;animation:lgd 1.4s ease-out .2s forwards}@keyframes lgd{to{stroke-dashoffset:0}}.lgf{opacity:0;animation:lga .5s ease-out forwards}@keyframes lga{to{opacity:1}}.lgn{opacity:0;transform-box:fill-box;transform-origin:center;animation:lgp .4s ease-out forwards}@keyframes lgp{from{opacity:0;transform:scale(0)}to{opacity:1;transform:scale(1)}}.lgc{animation:lgk 1.1s steps(1) 2.2s infinite}@keyframes lgk{50%{opacity:.35}}</style><defs><linearGradient id="lgg" x1="0" y1="0" x2="1" y2="1"><stop offset="0" stop-color="#39d353"/><stop offset="1" stop-color="#58a6ff"/></linearGradient></defs><polygon class="lgh" points="80,10 140.6,45 140.6,115 80,150 19.4,115 19.4,45" fill="#0d1117" stroke="url(#lgg)" stroke-width="4" stroke-linejoin="round"/><polygon class="lgf" style="animation-delay:.9s" points="80,24 128.5,52 128.5,108 80,136 31.5,108 31.5,52" fill="none" stroke="url(#lgg)" stroke-width="1.2" opacity=".4"/><circle class="lgn" style="animation-delay:1.00s" cx="80" cy="10" r="3.6" fill="#39d353"/><circle class="lgn" style="animation-delay:1.12s" cx="140.6" cy="45" r="3.6" fill="#39d353"/><circle class="lgn" style="animation-delay:1.24s" cx="140.6" cy="115" r="3.6" fill="#39d353"/><circle class="lgn" style="animation-delay:1.36s" cx="80" cy="150" r="3.6" fill="#39d353"/><circle class="lgn" style="animation-delay:1.48s" cx="19.4" cy="115" r="3.6" fill="#39d353"/><circle class="lgn" style="animation-delay:1.60s" cx="19.4" cy="45" r="3.6" fill="#39d353"/><g class="lgf" style="animation-delay:1.5s"><polyline points="52,62 36,80 52,98" fill="none" stroke="#39d353" stroke-width="5" stroke-linecap="round" stroke-linejoin="round"/><polyline points="108,62 124,80 108,98" fill="none" stroke="#58a6ff" stroke-width="5" stroke-linecap="round" stroke-linejoin="round"/><circle cx="80" cy="52" r="8" fill="url(#lgg)"/><circle cx="80" cy="50.5" r="2.2" fill="#0d1117"/><rect x="79" y="51" width="2" height="5" rx="1" fill="#0d1117"/><rect class="lgc" x="72" y="68" width="16" height="48" rx="3" fill="url(#lgg)"/></g></svg>